HIERARCHY
ROOT Hips
{
	OFFSET 0.000000 0.000000 0.000000
	CHANNELS 6 Xposition Yposition Zposition Zrotation Yrotation Xrotation 
	JOINT LowerBack
	{
		OFFSET 0.000000 0.000000 0.000000
		CHANNELS 3 Zrotation Yrotation Xrotation
		JOINT Spine
		{
			OFFSET 0.028270 2.035590 -0.193380
			CHANNELS 3 Zrotation Yrotation Xrotation
			JOINT Spine1
			{
				OFFSET 0.056720 2.048850 -0.042750
				CHANNELS 3 Zrotation Yrotation Xrotation
				JOINT Neck
				{
					OFFSET 0.000000 0.000000 0.000000
					CHANNELS 3 Zrotation Yrotation Xrotation
					JOINT Neck1
					{
						OFFSET -0.054170 1.746240 0.172020
						CHANNELS 3 Zrotation Yrotation Xrotation
						JOINT Head
						{
							OFFSET 0.104070 1.761360 -0.123970
							CHANNELS 3 Zrotation Yrotation Xrotation
							End Site
							{
								OFFSET 0.000000 0.000000 0.000000
							}
						}
					}
				}
				JOINT LeftShoulder
				{
					OFFSET 0.000000 0.000000 0.000000
					CHANNELS 3 Zrotation Yrotation Xrotation
					JOINT LeftArm
					{
						OFFSET 3.362410 1.200890 -0.311210
						CHANNELS 3 Zrotation Yrotation Xrotation
						JOINT LeftForeArm
						{
							OFFSET 4.983000 -0.000000 -0.000000
							CHANNELS 3 Zrotation Yrotation Xrotation
							JOINT LeftHand
							{
								OFFSET 3.483560 -0.000000 -0.000000
								CHANNELS 3 Zrotation Yrotation Xrotation
								JOINT LeftFingerBase
								{
									OFFSET 0.000000 0.000000 0.000000
									CHANNELS 3 Zrotation Yrotation Xrotation
									JOINT LeftHandIndex1
									{
										OFFSET 0.715260 -0.000000 -0.000000
										CHANNELS 3 Zrotation Yrotation Xrotation
										End Site
										{
											OFFSET 0.000000 0.000000 0.000000
										}
									}
								}
								JOINT LThumb
								{
									OFFSET 0.000000 0.000000 0.000000
									CHANNELS 3 Zrotation Yrotation Xrotation
									End Site
									{
										OFFSET 0.000000 0.000000 0.000000
									}
								}
							}
						}
					}
				}
				JOINT RightShoulder
				{
					OFFSET 0.000000 0.000000 0.000000
					CHANNELS 3 Zrotation Yrotation Xrotation
					JOINT RightArm
					{
						OFFSET -3.136600 1.374050 -0.404650
						CHANNELS 3 Zrotation Yrotation Xrotation
						JOINT RightForeArm
						{
							OFFSET -5.241900 -0.000000 -0.000000
							CHANNELS 3 Zrotation Yrotation Xrotation
							JOINT RightHand
							{
								OFFSET -3.444170 -0.000000 -0.000000
								CHANNELS 3 Zrotation Yrotation Xrotation
								JOINT RightFingerBase
								{
									OFFSET 0.000000 0.000000 0.000000
									CHANNELS 3 Zrotation Yrotation Xrotation
									JOINT RightHandIndex1
									{
										OFFSET -0.622530 -0.000000 -0.000000
										CHANNELS 3 Zrotation Yrotation Xrotation
										End Site
										{
											OFFSET 0.000000 0.000000 0.000000
										}
									}
								}
								JOINT RThumb
								{
									OFFSET 0.000000 0.000000 0.000000
									CHANNELS 3 Zrotation Yrotation Xrotation
									End Site
									{
										OFFSET 0.000000 0.000000 0.000000
									}
								}
							}
						}
					}
				}
			}
		}
	}
}
}
MOTION
Frames: 15
Frame Time: 0.008333
-10.075185 16.615647 -1.832476 71.162057 86.107303 96.130949 -4.698937 1.589295 6.929268 -1.984929 1.795364 -1.620977 -6.208588 1.771851 0.119717 8.208823 5.859980 4.122021 -3.632096 -0.364584 2.704944 0.000000 0.000000 0.000000 -6.715753 0.236054 3.176016 -46.237365 -12.445885 3.206107 -4.401475 -16.247472 -0.006164 4.584723 0.919491 0.036096 -0.155422 0.055794 0.000000 0.000000 0.000000 0.000000 0.000000 0.000000 0.000000 14.008803 7.029197 -1.900356 73.993334 33.481546 22.753848 0.985847 55.783123 -0.011876 -1.195222 12.208748 -0.128639 -0.025091 -0.347296 -0.000000 0.000000 0.000000 0.000000 0.000000 0.000000 0.000000 
-9.905238 16.584067 -1.809049 69.770758 85.641500 94.315715 -5.286257 1.593748 7.326815 -2.110586 1.813513 -1.559330 -6.245934 1.790469 0.054206 8.261890 6.056179 4.302456 -3.656612 -0.366809 2.739488 0.000000 0.000000 0.000000 -6.822102 -0.127206 3.168039 -46.409703 -13.223374 2.670378 -4.408539 -14.968628 -0.006976 4.912842 0.952771 0.039771 -0.151011 0.060767 0.000000 0.000000 0.000000 0.000000 0.000000 0.000000 0.000000 14.171879 7.086447 -1.928515 74.341541 32.724374 21.864680 0.969201 54.891089 -0.013226 -1.371103 12.398600 -0.150058 -0.026442 -0.343332 -0.000000 0.000000 0.000000 0.000000 0.000000 0.000000 0.000000 
-9.738337 16.561123 -1.787784 68.749295 85.184184 92.869938 -5.791063 1.598670 7.741442 -2.216864 1.828323 -1.488171 -6.272054 1.806034 0.004384 8.244555 6.264276 4.504084 -3.683835 -0.369131 2.778362 0.000000 0.000000 0.000000 -6.957982 -0.493645 3.148036 -46.702348 -14.130729 1.995119 -4.399771 -13.544726 -0.007956 5.309278 0.972979 0.043542 -0.145384 0.066670 0.000000 0.000000 0.000000 0.000000 0.000000 0.000000 0.000000 14.275457 7.128269 -1.963016 74.710442 31.975230 20.898169 0.953261 53.809057 -0.014578 -1.587613 12.553930 -0.176275 -0.027124 -0.337388 -0.000000 0.000000 0.000000 0.000000 0.000000 0.000000 0.000000 
-9.574036 16.546919 -1.769879 67.998647 84.753951 91.700088 -6.189924 1.600352 8.165081 -2.299466 1.836268 -1.405246 -6.289800 1.815454 -0.015083 8.160129 6.476357 4.708139 -3.714353 -0.371305 2.816622 0.000000 0.000000 0.000000 -7.140826 -0.775582 3.115009 -47.106906 -15.276580 1.244898 -4.374736 -11.949584 -0.009145 5.790874 0.966222 0.046511 -0.138697 0.073610 0.000000 0.000000 0.000000 0.000000 0.000000 0.000000 0.000000 14.325201 7.148484 -2.006343 75.081113 31.255463 19.868425 0.939254 52.548478 -0.015822 -1.837288 12.658696 -0.206092 -0.027055 -0.329308 -0.000000 0.000000 0.000000 0.000000 0.000000 0.000000 0.000000 
-9.411760 16.541236 -1.756021 67.431399 84.362183 90.721781 -6.473141 1.597128 8.584602 -2.356646 1.836262 -1.317453 -6.298550 1.816911 -0.019283 8.018970 6.696409 4.925583 -3.748695 -0.373561 2.858150 0.000000 0.000000 0.000000 -7.341620 -1.068380 3.073094 -47.657293 -16.487236 0.346937 -4.324391 -10.309733 -0.010576 6.362215 0.936493 0.048778 -0.130564 0.081183 0.000000 0.000000 0.000000 0.000000 0.000000 0.000000 0.000000 14.333174 7.155677 -2.044361 75.421995 30.552099 18.773401 0.929171 51.129566 -0.016845 -2.110187 12.695078 -0.237808 -0.026177 -0.319316 -0.000000 0.000000 0.000000 0.000000 0.000000 0.000000 0.000000 
-9.250882 16.543736 -1.746934 66.961283 84.028743 89.860386 -6.622582 1.585463 8.986453 -2.385533 1.825582 -1.223860 -6.303037 1.808014 0.006063 7.831796 6.913520 5.133756 -3.786755 -0.375604 2.897075 0.000000 0.000000 0.000000 -7.580581 -1.275132 3.022279 -48.330363 -17.869846 -0.571164 -4.251402 -8.624409 -0.012277 7.027264 0.871627 0.049144 -0.121420 0.089222 0.000000 0.000000 0.000000 0.000000 0.000000 0.000000 0.000000 14.309782 7.144551 -2.080209 75.715686 29.881713 17.630249 0.925539 49.576938 -0.017533 -2.394850 12.655566 -0.269420 -0.024414 -0.307522 -0.000000 0.000000 0.000000 0.000000 0.000000 0.000000 0.000000 
-9.090752 16.553865 -1.742550 66.512905 83.759962 89.048909 -6.642192 1.564061 9.355300 -2.387287 1.803992 -1.131313 -6.303824 1.787873 0.047953 7.616203 7.130296 5.337966 -3.828035 -0.377563 2.935649 0.000000 0.000000 0.000000 -7.829015 -1.461251 2.966674 -49.145117 -19.283026 -1.500720 -4.153328 -7.027362 -0.014230 7.770331 0.779028 0.047209 -0.111354 0.097137 0.000000 0.000000 0.000000 0.000000 0.000000 0.000000 0.000000 14.270829 7.125464 -2.103263 75.936793 29.227536 16.436611 0.930830 47.924822 -0.017806 -2.675525 12.530250 -0.298330 -0.021800 -0.294341 -0.000000 0.000000 0.000000 0.000000 0.000000 0.000000 0.000000 
-8.930758 16.570974 -1.742579 66.012963 83.564922 88.227348 -6.533772 1.531165 9.677505 -2.362918 1.770720 -1.041267 -6.304686 1.755788 0.112371 7.388407 7.333086 5.521882 -3.872080 -0.379268 2.969827 0.000000 0.000000 0.000000 -8.089213 -1.576013 2.906465 -50.088216 -20.758396 -2.306821 -4.037129 -5.568091 -0.016379 8.563594 0.660013 0.042276 -0.101086 0.104539 0.000000 0.000000 0.000000 0.000000 0.000000 0.000000 0.000000 14.232046 7.092132 -2.114027 76.072722 28.600039 15.216361 0.948129 46.200634 -0.017626 -2.944226 12.326367 -0.323335 -0.018250 -0.280134 -0.000000 0.000000 0.000000 0.000000 0.000000 0.000000 0.000000 
-8.770475 16.594363 -1.746212 65.400432 83.442738 87.343175 -6.314179 1.487173 9.941174 -2.315799 1.726909 -0.960350 -6.305340 1.712335 0.184991 7.167186 7.528181 5.691167 -3.917110 -0.380804 3.001861 0.000000 0.000000 0.000000 -8.328970 -1.674197 2.844067 -51.176866 -22.169516 -2.941158 -3.907875 -4.372694 -0.018591 9.362394 0.529453 0.034746 -0.091174 0.110898 0.000000 0.000000 0.000000 0.000000 0.000000 0.000000 0.000000 14.205287 7.059072 -2.105198 76.109390 27.973878 13.960545 0.978882 44.446483 -0.016993 -3.182049 12.046408 -0.341834 -0.013962 -0.265413 0.000000 0.000000 0.000000 0.000000 0.000000 0.000000 0.000000 
-8.609535 16.623264 -1.752361 64.615173 83.389884 86.345652 -6.002899 1.432688 10.139494 -2.250196 1.673619 -0.889737 -6.308138 1.658698 0.268131 6.967819 7.696007 5.832973 -3.962796 -0.382089 3.028540 0.000000 0.000000 0.000000 -8.539188 -1.728567 2.777340 -52.404125 -23.523866 -3.299010 -3.776469 -3.485426 -0.020688 10.111221 0.392837 0.024822 -0.082530 0.116002 0.000000 0.000000 0.000000 0.000000 0.000000 0.000000 0.000000 14.206986 7.012246 -2.077290 76.043682 27.364816 12.707678 1.025423 42.679136 -0.015966 -3.388907 11.715354 -0.354330 -0.008863 -0.250596 0.000000 0.000000 0.000000 0.000000 0.000000 0.000000 0.000000 
-8.447733 16.656975 -1.759658 63.601924 83.396076 85.183699 -5.625735 1.370031 10.267597 -2.171030 1.613224 -0.835584 -6.312387 1.596796 0.344478 6.807153 7.859355 5.958960 -4.006390 -0.383212 3.053544 0.000000 0.000000 0.000000 -8.691522 -1.789043 2.707686 -53.775184 -24.717958 -3.368948 -3.650740 -2.986608 -0.022452 10.745075 0.257528 0.013106 -0.075753 0.119711 0.000000 0.000000 0.000000 0.000000 0.000000 0.000000 0.000000 14.242922 6.980792 -2.026311 75.872138 26.725981 11.416808 1.085800 40.957232 -0.014599 -3.530398 11.329709 -0.357222 -0.003561 -0.236073 0.000000 0.000000 0.000000 0.000000 0.000000 0.000000 0.000000 
-8.285238 16.694758 -1.766772 62.349287 83.449332 83.844694 -5.208624 1.300127 10.333119 -2.083511 1.546454 -0.794662 -6.318005 1.527847 0.420754 6.686343 7.970268 6.051001 -4.048195 -0.384080 3.071979 0.000000 0.000000 0.000000 -8.776505 -1.836039 2.629327 -55.275120 -25.762613 -3.030298 -3.540246 -2.915602 -0.023753 11.231007 0.145105 0.002396 -0.071599 0.122002 0.000000 0.000000 0.000000 0.000000 0.000000 0.000000 0.000000 14.318076 6.917429 -1.953981 75.611784 26.120049 10.196554 1.163564 39.234315 -0.013043 -3.651499 10.970954 -0.358109 0.002536 -0.222366 0.000000 0.000000 0.000000 0.000000 0.000000 0.000000 0.000000 
-8.121845 16.736043 -1.772374 60.811784 83.531313 82.282366 -4.777768 1.225695 10.336187 -1.992967 1.475725 -0.772658 -6.326538 1.453926 0.478340 6.621507 8.083520 6.129010 -4.085386 -0.384799 3.089412 0.000000 0.000000 0.000000 -8.788306 -1.900867 2.546533 -56.873517 -26.606446 -2.355075 -3.450479 -3.269819 -0.024424 11.500903 0.033662 -0.009001 -0.070178 0.123273 0.000000 0.000000 0.000000 0.000000 0.000000 0.000000 0.000000 14.436908 6.881120 -1.860416 75.261734 25.462055 8.935885 1.251532 37.607356 -0.011324 -3.683059 10.591557 -0.348998 0.008184 -0.209497 0.000000 0.000000 0.000000 0.000000 0.000000 0.000000 0.000000 
-7.957920 16.780215 -1.775572 59.014691 83.632677 80.515054 -4.346479 1.146853 10.289343 -1.901638 1.400693 -0.765868 -6.335343 1.375068 0.520942 6.598651 8.150401 6.181134 -4.118455 -0.385347 3.102671 0.000000 0.000000 0.000000 -8.722049 -2.000092 2.455073 -58.538548 -27.211179 -1.211631 -3.384991 -4.128768 -0.024518 11.564683 -0.022467 -0.014787 -0.071686 0.123551 0.000000 0.000000 0.000000 0.000000 0.000000 0.000000 0.000000 14.586896 6.820142 -1.745841 74.849448 24.822939 7.749552 1.353438 35.998770 -0.009564 -3.681948 10.289425 -0.339184 0.014087 -0.197961 0.000000 0.000000 0.000000 0.000000 0.000000 0.000000 0.000000 
-7.793467 16.826839 -1.775488 56.987400 83.733251 78.562801 -3.933765 1.063606 10.202195 -1.813758 1.321109 -0.774190 -6.347187 1.291168 0.542930 6.622239 8.203570 6.216407 -4.146571 -0.385747 3.113878 0.000000 0.000000 0.000000 -8.596707 -2.126830 2.359624 -60.207078 -27.605607 0.329478 -3.344018 -5.433146 -0.024059 11.405542 -0.056586 -0.017961 -0.075719 0.123437 0.000000 0.000000 0.000000 0.000000 0.000000 0.000000 0.000000 14.769286 6.766971 -1.614513 74.383726 24.160969 6.571119 1.462955 34.461741 -0.007792 -3.611632 10.033270 -0.324671 0.019484 -0.187644 0.000000 0.000000 0.000000 0.000000 0.000000 0.000000 0.000000 
